<svg width="180" height="43" viewBox="0 0 180 43" fill="none" xmlns="http://www.w3.org/2000/svg">
<g clip-path="url(#clip0_217_59)">
<rect width="180" height="42.7306" fill="#0D102F"/>
<path d="M23.8104 10.9779L3.00426 23.9024L23.8104 37.0503L21.701 39.699L0 26.1363V21.6047L21.9247 8.04199L23.8104 10.9779Z" fill="#F231A5"/>
<path d="M45.1296 7.24414H57.5302C57.5302 7.24414 56.891 8.39299 55.7724 10.4354L51.1381 18.3177L45.3214 28.7211L45.1296 29.1041V7.24414ZM60.2148 7.659C61.5821 7.99923 62.9103 8.4805 64.1779 9.09506C65.0192 9.54209 65.8305 10.0431 66.6069 10.5949C67.2538 11.058 67.8728 11.5589 68.4606 12.0948C69.1637 12.8288 69.6751 13.3713 69.9947 13.7543C70.5229 14.44 71.0137 15.1538 71.4648 15.8924C73.0504 18.5579 73.8893 21.6 73.8938 24.7002V24.9236C73.8888 27.6249 73.231 30.2851 71.9762 32.6783C71.5019 33.5384 70.9453 34.3506 70.3143 35.1036C69.8607 35.6879 69.3696 36.2422 68.8441 36.7631C68.2343 37.3958 67.5594 37.9628 66.8306 38.4544C66.4004 38.7871 65.9523 39.096 65.4883 39.3799C62.871 40.9136 59.8938 41.7284 56.859 41.7414H45.0977V34.8483C45.0977 34.8483 45.7688 33.5718 47.1112 31.1784C47.1112 31.1784 48.7092 28.3382 51.7773 22.7855L57.69 12.1267L60.2148 7.659ZM47.7184 9.86095V19.1474C47.7184 19.1474 49.1886 16.5945 51.9691 11.648L52.9279 9.95669L47.7184 9.86095ZM61.4613 10.7545L56.092 20.3282C52.3846 27.0617 50.435 30.5402 50.2752 30.7954L47.7184 35.3908V39.2522H56.7312C59.9984 39.2238 63.1613 38.0999 65.712 36.061C66.0636 35.7738 66.5749 35.327 67.2461 34.6568C67.8342 34.0325 68.3687 33.36 68.8441 32.6464C69.3935 31.8476 69.8543 30.9916 70.2184 30.0934C70.8989 28.4313 71.2568 26.6553 71.2731 24.8598V24.6364C71.2457 22.5893 70.7998 20.5695 69.9627 18.7007C69.6117 17.9156 69.1834 17.1673 68.6843 16.4668C68.2242 15.7422 67.6885 15.0683 67.0863 14.4563C66.6047 13.9668 66.0922 13.5085 65.5522 13.0841C64.3209 12.0958 62.94 11.3095 61.4613 10.7545Z" fill="#F231A5"/>
<path d="M97.8299 7.05273C94.6339 13.6267 92.8441 17.1051 92.6204 17.52L88.0821 26.7427C85.1737 32.6464 83.6715 35.6462 83.6076 35.7738L81.8818 33.0613C81.5037 32.3717 81.1727 31.6573 80.891 30.9232C80.0644 28.8967 79.6411 26.7288 79.6446 24.5407V24.413C79.6828 20.9767 80.7379 17.6284 82.6771 14.7892C84.6163 11.9501 87.353 9.74695 90.543 8.45688C91.4863 8.088 92.4592 7.79975 93.4514 7.59524C94.2116 7.44431 94.9799 7.33776 95.7525 7.27612L97.8299 7.05273ZM82.2333 24.3811V24.7003C82.2451 26.609 82.6362 28.4963 83.3839 30.253C83.3839 30.253 84.0551 28.9446 85.1737 26.6469C85.3654 26.3278 86.9315 23.1685 89.9038 17.0732C92.109 12.5736 93.2596 10.2759 93.2916 10.1482C92.5164 10.3705 91.758 10.6478 91.0224 10.978C90.2875 11.2997 89.5818 11.6841 88.913 12.1268C88.3436 12.5064 87.7991 12.9221 87.283 13.3714C86.7911 13.8052 86.3318 14.2745 85.9088 14.7755C85.2573 15.5271 84.6794 16.3393 84.1829 17.2009C83.7428 17.9767 83.3686 18.788 83.0643 19.6262C82.517 21.1521 82.2359 22.7604 82.2333 24.3811ZM105.085 9.19086C105.881 9.59147 106.64 10.0613 107.354 10.595C108.808 11.6851 110.09 12.9867 111.157 14.4564C111.802 15.3474 112.358 16.2986 112.819 17.2966C113.107 17.9668 113.363 18.5731 113.554 19.1475L111.061 19.9453C110.771 19.0708 110.397 18.2265 109.943 17.4242C109.509 16.6367 109.007 15.8892 108.441 15.1904C107.795 14.443 107.09 13.7492 106.331 13.1161C105.722 12.5976 105.058 12.1481 104.35 11.7758C103.711 11.4247 103.199 11.1694 102.752 10.978L97.1588 22.3387L93.9627 28.7212H113.97C113.458 30.1573 113.043 31.2423 112.691 31.9125C112.234 32.8216 111.71 33.6961 111.125 34.5293C110.673 35.1536 110.17 35.7406 109.623 36.2844C109.156 36.8085 108.643 37.2892 108.089 37.7205C107.176 38.4736 106.191 39.1362 105.149 39.6991C102.675 41.0014 99.9235 41.6909 97.1268 41.7095H96.9031C93.9845 41.6941 91.1165 40.948 88.5615 39.5395C87.9542 39.1885 87.2191 38.7098 86.3242 38.1034C89.8079 31.0508 91.6936 27.2852 91.9492 26.7746C91.9492 26.7746 92.908 24.7641 94.8896 20.775L100.323 9.7972L101.441 7.56333C102.703 7.99492 103.922 8.53965 105.085 9.19086ZM92.6843 31.4019L89.744 37.3375C92.1716 38.7003 94.935 39.3513 97.7167 39.2159C100.498 39.0804 103.185 38.1638 105.468 36.5717C106.175 36.0752 106.837 35.5201 107.45 34.9122C108.011 34.3491 108.524 33.7407 108.984 33.0932C109.381 32.5524 109.744 31.9875 110.071 31.4019H92.6843Z" fill="#F231A5"/>
<path d="M142.221 22.6897L133.975 42.7306H131.035L138.514 24.764L142.221 22.6897ZM140.304 20.1048L148.581 0H151.522L144.171 18.0305L140.304 20.1048Z" fill="#F231A5"/>
<path d="M180.002 21.6686V26.1363L158.333 39.699L156.191 36.8908L176.966 23.9024L156.191 10.8503L158.045 8.04199L180.002 21.6686Z" fill="#F231A5"/>
</g>
<defs>
<clipPath id="clip0_217_59">
<rect width="180" height="42.7306" fill="white"/>
</clipPath>
</defs>
</svg>
